# xmcd
#
# Track frame offsets:
#	150
#	17047
#	29523
#	42201
#	57089
#	74273
#	93730
#	107831
#	120906
#	131997
#	144790
#	161040
#	176375
#	192724
#	209166
#
# Disc length: 2971 seconds
#
# Revision: 1
# Processed by: cddbd v1.5.2PL0 Copyright (c) Steve Scherf et al.
# Submitted via: audiograbber 1.83.01
#
DISCID=dd0b990f
DTITLE=Various Artist - CB80113
DYEAR=1900
DGENRE=KARAOKE
TTITLE0=WILLIE NELSON - WHISKEY RIVER
TTITLE1=MOE BANDY and JOE STAMPLEY - JUST GOOD OL' BOYS
TTITLE2=LARRY GATLIN - ALL THE GOLD IN CALIFORNIA
TTITLE3=ANNE MURRAY - SHADOWS IN THE MOONIGHT
TTITLE4=CONWAY TWITTY - DON'T TAKE IT AWAY
TTITLE5=GENE WATSON - FAREWELL PARTY
TTITLE6=CONWAY TWITTY - HAPPY BIRTHDAY DARLIN'
TTITLE7=ANNE MURRAY - I JUST FALL IN LOVE AGAIN
TTITLE8=DON WILLIAMS - IT MUST BE LOVE
TTITLE9=MOE BANDY - IT'S A CHEATING SITUATION
TTITLE10=BELLAMY BROTHERS - IF I SAID YOU HAD A BEAUTIFUL BODY
TTITLE11=BARBARA MANDRELL - IF LOVING YOU IS WRONG..
TTITLE12=DOTTI WEST and KENNY ROGERS - ALL I EVER NEED IS YOU
TTITLE13=MEL TILLIS - COCA COLA COWBOY
TTITLE14=CONWAY TWITTY - I MAY NEVER GET TO HEAVEN
EXTD=
EXTT0=
EXTT1=
EXTT2=
EXTT3=
EXTT4=
EXTT5=
EXTT6=
EXTT7=
EXTT8=
EXTT9=
EXTT10=
EXTT11=
EXTT12=
EXTT13=
EXTT14=
PLAYORDER=
